<svg width="118" height="60" viewBox="0 0 118 60" fill="none" xmlns="http://www.w3.org/2000/svg">
<g id="Logo" clip-path="url(#clip0_83_1506)">
<path id="Vector" d="M52.5865 58.2784H52.5777L52.02 56.5217H51.3872L50.8289 58.2784H50.8202L50.2229 56.5217H49.564L50.4468 58.9217H51.1325L51.6989 57.2551H51.7077L52.2748 58.9217H52.9598L53.8433 56.5217H53.1844L52.5865 58.2784Z" fill="white"/>
<path id="Vector_2" d="M56.6504 58.3736V57.2372C56.6504 56.9251 56.6156 56.4314 55.3983 56.4314C54.7085 56.4314 54.256 56.6257 54.1682 57.2555H54.7614C54.7836 56.988 54.9987 56.8573 55.3983 56.8573C55.7495 56.8573 56.0572 56.9251 56.0572 57.2014C56.0572 57.3869 55.9647 57.4187 55.0953 57.5047C54.7085 57.5413 54.0496 57.6002 54.0496 58.2612C54.0496 58.7318 54.3921 59.0128 54.9987 59.0128C55.6798 59.0128 55.9741 58.8002 56.0927 58.6824C56.1101 58.7731 56.1544 58.9905 56.5499 58.9905C56.7563 58.9905 56.8616 58.9587 56.9802 58.9363V58.4975C56.932 58.5063 56.8395 58.511 56.7825 58.511C56.7429 58.511 56.6504 58.5063 56.6504 58.3749V58.3736ZM56.0438 57.9564C56.0438 58.486 55.4948 58.6126 55.1697 58.6126C54.9632 58.6126 54.6817 58.5537 54.6817 58.2368C54.6817 58.0329 54.7916 57.9287 55.2488 57.8745C55.6791 57.8244 55.8682 57.802 56.0438 57.7248V57.9557V57.9564Z" fill="white"/>
<path id="Vector_3" d="M58.4953 57.4451C57.9108 57.3591 57.8538 57.3273 57.8538 57.1329C57.8538 57.0063 58.0381 56.8566 58.3813 56.8566C58.5878 56.8566 58.992 56.8972 59.0403 57.2548H59.673C59.6382 56.4848 58.7721 56.4307 58.4122 56.4307C58.0214 56.4307 57.2478 56.5214 57.2478 57.2047C57.2478 57.7525 57.6259 57.8385 58.3465 57.9381C59.0014 58.0288 59.1019 58.0918 59.1019 58.2774C59.1019 58.5035 58.7721 58.5855 58.4691 58.5855C58.2493 58.5855 57.8451 58.5313 57.8276 58.169H57.1687C57.1908 58.9024 57.9771 59.0114 58.4738 59.0114C59.1944 59.0114 59.7609 58.8029 59.7609 58.192C59.7609 57.6354 59.2601 57.5582 58.4953 57.4451Z" fill="white"/>
<path id="Vector_4" d="M61.7114 56.4579C61.2985 56.4579 60.9908 56.6252 60.7931 56.8832H60.7844V55.6338H60.1777V58.9209H60.7844V57.6301C60.7844 57.1182 61.1926 56.9374 61.5097 56.9374C62.0104 56.9374 62.0942 57.232 62.0942 57.49V58.9209H62.7008V57.2909C62.7008 56.6435 62.2128 56.4579 61.7121 56.4579H61.7114Z" fill="white"/>
<path id="Vector_5" d="M68.5629 55.2249C68.4644 55.2249 68.3893 55.2574 68.3377 55.3224C68.2888 55.3752 68.2646 55.4416 68.2646 55.5215C68.2646 55.6014 68.2895 55.6664 68.3397 55.7185C68.39 55.7774 68.4644 55.8072 68.5629 55.8072C68.6615 55.8072 68.7379 55.7781 68.7882 55.7185C68.8384 55.6671 68.8632 55.6014 68.8632 55.5215C68.8632 55.4416 68.8391 55.3752 68.7902 55.3224C68.7399 55.2574 68.6642 55.2249 68.5629 55.2249Z" fill="white"/>
<path id="Vector_6" d="M69.5554 58.4992H69.4033C69.2142 58.4992 69.0721 58.4267 68.9763 58.2825C68.8958 58.1599 68.8489 57.9933 68.8348 57.7827V57.0222H68.3073V58.4992H68.1611C67.948 58.4992 67.7945 58.4105 67.7 58.2337C67.641 58.122 67.6048 57.9818 67.5907 57.8139V57.0222H67.0631V58.5967C67.0631 58.8371 66.9874 59.0396 66.8359 59.2048C66.6844 59.3687 66.4994 59.4506 66.2802 59.4506C66.061 59.4506 65.874 59.3687 65.7225 59.2048C65.5683 59.0396 65.4906 58.8371 65.4906 58.5967C65.4906 58.3062 65.5965 58.0726 65.8083 57.8958L65.508 57.5091C65.1474 57.8085 64.967 58.1708 64.967 58.5967C64.967 58.9651 65.0951 59.28 65.3511 59.5407C65.6045 59.7987 65.9142 59.9274 66.2802 59.9274C66.6462 59.9274 66.9512 59.7967 67.2066 59.536C67.4124 59.3281 67.5357 59.085 67.5759 58.8066C67.6832 58.9204 67.8783 58.9766 68.1618 58.9766H68.8355V58.7978C68.9112 58.917 69.1009 58.9766 69.4039 58.9766H70.0796V56.7412H69.5561V58.4992H69.5554Z" fill="white"/>
<path id="Vector_7" d="M67.9837 55.9188C67.9361 55.9736 67.9126 56.04 67.9126 56.1179C67.9126 56.1958 67.9361 56.2587 67.9837 56.3149C68.0379 56.3752 68.1137 56.4057 68.2109 56.4057C68.3081 56.4057 68.3858 56.3752 68.4361 56.3149C68.4864 56.2635 68.5112 56.1978 68.5112 56.1179C68.5112 56.038 68.4871 55.9736 68.4381 55.9188C68.3838 55.8551 68.3081 55.824 68.2109 55.824C68.1137 55.824 68.0366 55.8558 67.9837 55.9188Z" fill="white"/>
<path id="Vector_8" d="M68.6165 56.1179C68.6165 56.1944 68.6413 56.2601 68.6915 56.3149C68.7418 56.3752 68.8169 56.4057 68.9168 56.4057C69.0166 56.4057 69.0897 56.3752 69.144 56.3149C69.1909 56.2635 69.2151 56.1978 69.2151 56.1179C69.2151 56.038 69.1923 55.9736 69.146 55.9188C69.0917 55.8551 69.0153 55.824 68.9168 55.824C68.8182 55.824 68.7391 55.8558 68.6895 55.9188C68.6406 55.9736 68.6165 56.04 68.6165 56.1179Z" fill="white"/>
<path id="Vector_9" d="M71.5715 55.4634H71.0439V58.9766H71.5715V55.4634Z" fill="white"/>
<path id="Vector_10" d="M74.4686 56.9538C74.2441 56.7222 73.9712 56.6064 73.6488 56.6064C73.3264 56.6064 73.0536 56.7222 72.8297 56.9538C72.6038 57.1868 72.4905 57.4651 72.4905 57.7895C72.4905 58.1139 72.6031 58.3969 72.8297 58.6299C73.0542 58.8615 73.327 58.9773 73.6488 58.9773H74.2494C74.2166 59.0762 74.11 59.1696 73.9297 59.2583C73.7252 59.3599 73.4464 59.4107 73.0931 59.4107V59.8928C73.6079 59.8928 74.0148 59.7872 74.3138 59.5766C74.5598 59.4053 74.716 59.1913 74.7837 58.9333C74.7964 58.8892 74.8044 58.8222 74.8071 58.7321C74.8071 58.7023 74.8085 58.6685 74.8111 58.6306L74.8071 57.7902C74.8071 57.4658 74.6938 57.1875 74.4679 56.9545L74.4686 56.9538ZM74.2843 58.4992H73.6495C73.4705 58.4992 73.3203 58.4315 73.199 58.296C73.0763 58.1572 73.0147 57.9886 73.0147 57.7895C73.0147 57.5904 73.0763 57.4265 73.199 57.2877C73.3203 57.1523 73.4705 57.0845 73.6495 57.0845C73.8285 57.0845 73.9786 57.1523 74.0999 57.2877C74.2226 57.4265 74.2843 57.5938 74.2843 57.7895V58.4992Z" fill="white"/>
<path id="Vector_11" d="M30.664 32.9954H11.2635L10.7755 36.9745H26.0187C26.569 36.9745 26.9819 37.1506 27.2548 37.5027C27.5276 37.8549 27.6301 38.3086 27.5618 38.8659C27.4934 39.4226 27.2434 39.877 26.811 40.2291C26.3793 40.5819 25.896 40.7573 25.3611 40.7573H18.1893L18.389 39.1293H10.512L10.3123 40.7573L9.42008 48.0351H0.612009L0.3479 50.1892H17.033L17.7013 44.7365H22.4908L25.955 50.1892H33.8568L30.2672 44.5645C31.6226 44.2204 32.7803 43.5372 33.7402 42.5133C34.7001 41.49 35.2665 40.2738 35.4394 38.8659C35.6419 37.2122 35.3054 35.8206 34.4319 34.6904C33.5572 33.5608 32.3016 32.9954 30.6647 32.9954H30.664Z" fill="white"/>
<path id="Vector_12" d="M62.0613 42.2302L63.1935 32.9954H55.3165L54.0825 43.0652C53.886 44.6701 53.0019 45.734 51.43 46.2581C50.7027 46.5039 49.9177 46.6265 49.0751 46.6265C47.2277 46.6265 45.9755 46.1274 45.32 45.1286C44.9627 44.6044 44.8367 43.9171 44.9406 43.0652L46.1746 32.9954H37.2358L37.0039 34.8868H38.0657L37.1655 42.2309C36.7679 45.4726 37.7017 47.7737 39.9661 49.1328C41.8698 50.2623 44.7341 50.8278 48.559 50.8278C52.3838 50.8278 55.403 50.263 57.5675 49.1328C60.165 47.7737 61.6625 45.4732 62.06 42.2309L62.0613 42.2302Z" fill="white"/>
<path id="Vector_13" d="M86.2233 33.3393C85.1367 32.9465 83.8725 32.6844 82.4299 32.5531C80.9874 32.4224 79.4718 32.3567 77.8831 32.3567C76.2944 32.3567 74.7808 32.4061 73.2941 32.5043C71.8073 32.6025 70.4613 32.8361 69.2574 33.2045C68.0534 33.5729 67.0889 34.1377 66.3629 34.8995C65.6376 35.6607 65.2005 36.6474 65.0517 37.8589C64.8634 39.3981 65.3748 40.5771 66.5874 41.3958C67.7243 42.1658 69.1461 42.7387 70.85 43.1152C72.554 43.4924 74.2278 43.787 75.8715 43.9996C77.2617 44.1635 78.4133 44.3517 79.3277 44.5644C80.2882 44.7939 80.7414 45.1292 80.6871 45.5714C80.6308 46.0298 80.3787 46.3698 79.9303 46.5905C79.4818 46.8113 78.8986 46.9427 78.1801 46.9833C77.4615 47.0246 76.7295 47.0449 75.9847 47.0449C75.24 47.0449 74.5368 46.988 73.8786 46.8729C73.2196 46.7585 72.6988 46.5458 72.316 46.2343C71.9326 45.9235 71.7791 45.4569 71.8555 44.8346H62.9167L62.6848 46.726H64.0335C64.1441 47.2251 64.3385 47.6639 64.6187 48.0404C65.2099 48.8347 66.0646 49.432 67.1827 49.8336C68.3008 50.2345 69.5932 50.5006 71.0599 50.632C72.5272 50.7627 74.0462 50.8284 75.6187 50.8284C77.1913 50.8284 78.7505 50.7952 80.25 50.7302C81.7489 50.6645 83.111 50.4641 84.335 50.1282C85.559 49.793 86.545 49.2526 87.2931 48.507C88.0412 47.7621 88.491 46.7673 88.6438 45.5226C88.8282 44.0165 88.3234 42.8457 87.1296 42.0107C85.994 41.2245 84.575 40.6353 82.873 40.2426C81.1704 39.8498 79.508 39.5302 77.8851 39.285C76.4828 39.0886 75.3258 38.876 74.4142 38.6464C73.4388 38.4006 72.979 38.0573 73.0333 37.6151C73.0896 37.1566 73.3249 36.8207 73.7405 36.6081C74.1554 36.3954 74.7024 36.2641 75.3808 36.2153C76.0591 36.1666 76.7717 36.1415 77.5171 36.1415C78.2625 36.1415 78.9844 36.1991 79.6353 36.3135C80.2855 36.428 80.8024 36.6413 81.1858 36.9521C81.5692 37.2636 81.7227 37.7302 81.6463 38.3518H89.3289C89.4931 37.0097 89.2887 35.937 88.7142 35.1345C88.1397 34.3327 87.3092 33.7348 86.2233 33.3413V33.3393Z" fill="white"/>
<path id="Vector_14" d="M109.775 32.9954L108.965 39.602H99.8242L100.634 32.9954H92.7569L90.8814 48.2971H89.8196L89.5876 50.1878H90.6494H98.5264L99.3362 43.5812H108.477L107.668 50.1878H115.545L117.652 32.9954H109.775Z" fill="white"/>
<path id="Vector_15" d="M81.446 16.0495L81.2141 17.9409L80.9828 19.8316H80.9821L80.95 20.0943L80.0906 27.1093H69.966L69.7019 29.2635H87.7035L88.3718 23.8107L88.827 20.0943L88.8591 19.8316L89.323 16.0495L89.8103 12.0703H81.9333L81.446 16.0495Z" fill="white"/>
<path id="Vector_16" d="M79.3502 12.0703H71.4733H70.2962L70.0642 13.9617H71.2413L70.6628 18.6776H66.2682L67.0779 12.071H59.2009H58.0145L57.7825 13.9624H58.969L58.3905 18.6783H52.8657L53.6265 12.4685L53.6754 12.0717H45.7985L45.72 12.7109L44.5644 22.1421C44.368 23.7471 43.4838 24.8109 41.9119 25.3351C41.1846 25.5809 40.3997 25.7035 39.5571 25.7035C37.7096 25.7035 36.4575 25.2044 35.8019 24.2055C35.4446 23.6814 35.3186 22.9941 35.4225 22.1421L36.6566 12.0723H27.7178L27.4858 13.9637H28.5476L27.6474 21.3078C27.2499 24.5496 28.1836 26.8506 30.448 28.2098C32.3517 29.3393 35.216 29.9048 39.0409 29.9048C42.8658 29.9048 45.8849 29.34 48.0494 28.2098C50.2702 27.0477 51.6866 25.1976 52.2993 22.6595H78.0512L79.3482 12.0737L79.3502 12.0703Z" fill="white"/>
<path id="Vector_17" d="M60.2896 3.63921H68.1096L67.6665 7.25337H75.5435L75.9899 3.61348H68.1351L68.5781 0H60.7011L60.2581 3.61348H52.4159L51.9695 7.25337H59.8465L60.2896 3.63921Z" fill="white"/>
<path id="Vector_18" d="M82.6356 6.34326L82.5237 7.25273H90.4007L90.5126 6.34326H82.6356Z" fill="white"/>
</g>
<defs>
<clipPath id="clip0_83_1506">
<rect width="117.304" height="59.9272" fill="white" transform="translate(0.3479)"/>
</clipPath>
</defs>
</svg>
